<svg width="24" height="25" viewBox="0 0 24 25" fill="none" xmlns="http://www.w3.org/2000/svg">
<path d="M19 3.79468H5C3.9 3.79468 3 4.69468 3 5.79468V19.7947C3 20.8947 3.9 21.7947 5 21.7947H19C20.1 21.7947 21 20.8947 21 19.7947V5.79468C21 4.69468 20.1 3.79468 19 3.79468ZM19 19.7947H5V5.79468H19V19.7947Z" fill="white" fill-opacity="0.87"/>
<path d="M9 12.7947H7V17.7947H9V12.7947Z" fill="white" fill-opacity="0.87"/>
<path d="M17 7.79468H15V17.7947H17V7.79468Z" fill="white" fill-opacity="0.87"/>
<path d="M13 14.7947H11V17.7947H13V14.7947Z" fill="white" fill-opacity="0.87"/>
<path d="M13 10.7947H11V12.7947H13V10.7947Z" fill="white" fill-opacity="0.87"/>
</svg>
