<svg width="24" height="25" viewBox="0 0 24 25" fill="none" xmlns="http://www.w3.org/2000/svg">
<g clip-path="url(#clip0_2103_1590)">
<path d="M19.48 12.6678C17.91 8.58777 12.32 8.36777 13.67 2.43777C13.77 1.99777 13.3 1.65777 12.92 1.88777C9.29 4.02777 6.68 8.31777 8.87 13.9378C9.05 14.3978 8.51 14.8278 8.12 14.5278C6.31 13.1578 6.12 11.1878 6.28 9.77777C6.34 9.25777 5.66 9.00777 5.37 9.43777C4.69 10.4778 4 12.1578 4 14.6878C4.38 20.2878 9.11 22.0078 10.81 22.2278C13.24 22.5378 15.87 22.0878 17.76 20.3578C19.84 18.4278 20.6 15.3478 19.48 12.6678ZM10.2 17.6978C11.64 17.3478 12.38 16.3078 12.58 15.3878C12.91 13.9578 11.62 12.5578 12.49 10.2978C12.82 12.1678 15.76 13.3378 15.76 15.3778C15.84 17.9078 13.1 20.0778 10.2 17.6978Z" fill="white" fill-opacity="0.87"/>
</g>
<defs>
<clipPath id="clip0_2103_1590">
<rect width="24" height="24" fill="white" transform="translate(0 0.317871)"/>
</clipPath>
</defs>
</svg>
