<svg width="24" height="25" viewBox="0 0 24 25" fill="none" xmlns="http://www.w3.org/2000/svg">
<g clip-path="url(#clip0_2121_1701)">
<path d="M18.59 10.8379C19.64 11.3479 20.63 11.9879 21.55 12.7479L20.48 13.8179C19.9 13.3479 19.27 12.9279 18.6 12.5479V10.8379H18.59ZM5.4 10.8379V12.5379C4.75 12.9079 4.12 13.3279 3.53 13.8079L2.46 12.7379C3.37 11.9879 4.36 11.3579 5.4 10.8379ZM12 7.31787C7.46 7.31787 3.34 9.09787 0.29 11.9879C0.11 12.1679 0 12.4179 0 12.6979C0 12.9779 0.11 13.2279 0.29 13.3979L2.77 15.8779C2.95 16.0579 3.2 16.1679 3.48 16.1679C3.75 16.1679 4 16.0679 4.18 15.8879C4.97 15.1579 5.86 14.5279 6.84 14.0379C7.17 13.8779 7.4 13.5279 7.4 13.1379V10.0379C8.85 9.56787 10.4 9.31787 12 9.31787C13.6 9.31787 15.15 9.56787 16.59 10.0479V13.1479C16.59 13.5479 16.82 13.8879 17.15 14.0479C18.13 14.5379 19.03 15.1579 19.82 15.8979C20 16.0679 20.25 16.1779 20.52 16.1779C20.8 16.1779 21.05 16.0679 21.23 15.8879L23.71 13.4079C23.89 13.2279 24 12.9779 24 12.6979C24 12.4179 23.89 12.1679 23.71 11.9879C20.66 9.09787 16.54 7.31787 12 7.31787Z" fill="white" fill-opacity="0.87"/>
</g>
<defs>
<clipPath id="clip0_2121_1701">
<rect width="24" height="24" fill="white" transform="translate(0 0.317871)"/>
</clipPath>
</defs>
</svg>
